<svg width="52" height="53" viewBox="0 0 52 53" fill="none" xmlns="http://www.w3.org/2000/svg">
<g clip-path="url(#clip0_5020_119261)">
<path d="M48.5915 36.3242L45.5444 46.6271L39.5625 44.9911L48.5915 36.3242Z" fill="#E4761B" stroke="#E4761B" stroke-width="0.780519"/>
<path d="M39.5625 44.9911L45.3321 37.086L48.5915 36.3242L39.5625 44.9911Z" fill="#E4761B" stroke="#E4761B" stroke-width="0.780519"/>
<path d="M44.1094 28.5645L48.5927 36.3323L45.3332 37.0941L44.1094 28.5645ZM44.1094 28.5645L46.9942 26.5664L48.5927 36.3323L44.1094 28.5645Z" fill="#F6851B" stroke="#F6851B" stroke-width="0.780519"/>
<path d="M40.4375 22.6898L48.7297 19.293L48.3176 21.1537L40.4375 22.6898ZM48.0554 23.3891L40.4375 22.6898L48.3176 21.1537L48.0554 23.3891Z" fill="#763D16" stroke="#763D16" stroke-width="0.780519"/>
<path d="M48.0554 23.3891L46.9939 26.5612L40.4375 22.6898L48.0554 23.3891ZM49.7163 20.0797L48.3176 21.1537L48.7297 19.293L49.7163 20.0797ZM48.0554 23.3891L48.3176 21.1537L49.4291 22.0779L48.0554 23.3891Z" fill="#763D16" stroke="#763D16" stroke-width="0.780519"/>
<path d="M33.1309 42.4883L35.2039 43.1502L39.5623 44.9984L33.1309 42.4883Z" fill="#E2761B" stroke="#E2761B" stroke-width="0.780519"/>
<path d="M46.9931 26.5667L48.0546 23.3947L48.9663 24.094L46.9931 26.5667ZM46.9931 26.5667L38.3887 23.7318L40.4368 22.6953L46.9931 26.5667Z" fill="#763D16" stroke="#763D16" stroke-width="0.780519"/>
<path d="M42.4848 12.9648L40.4368 22.6932L38.3887 23.7298L42.4848 12.9648Z" fill="#763D16" stroke="#763D16" stroke-width="0.780519"/>
<path d="M48.7297 19.2964L40.4375 22.6932L42.4856 12.9648L48.7297 19.2964Z" fill="#763D16" stroke="#763D16" stroke-width="0.780519"/>
<path d="M42.4844 12.9639L51.1388 11.9648L48.7285 19.2955L42.4844 12.9639Z" fill="#763D16" stroke="#763D16" stroke-width="0.780519"/>
<path d="M46.9931 26.5653L44.1083 28.5634L38.3887 23.7305L46.9931 26.5653Z" fill="#F6851B" stroke="#F6851B" stroke-width="0.780519"/>
<path d="M50.7641 4.96094L51.1388 11.9669L42.4844 12.9659L50.7641 4.96094Z" fill="#763D16" stroke="#763D16" stroke-width="0.780519"/>
<path d="M50.7633 4.96094L33.467 17.5367L33.2422 9.00715L50.7633 4.96094Z" fill="#E2761B" stroke="#E2761B" stroke-width="0.780519"/>
<path d="M20.3789 7.98047L33.2419 9.00451L33.4667 17.534L20.3789 7.98047Z" fill="#F6851B" stroke="#F6851B" stroke-width="0.780519"/>
<path d="M38.3891 23.7298L33.4688 17.5356L42.4853 12.9648L38.3891 23.7298Z" fill="#763D16" stroke="#763D16" stroke-width="0.780519"/>
<path d="M38.3885 23.7305L44.1081 28.5634L36.0781 29.4501L38.3885 23.7305Z" fill="#E4761B" stroke="#E4761B" stroke-width="0.780519"/>
<path d="M36.0788 29.449L33.4688 17.5352L38.3892 23.7294L36.0788 29.449Z" fill="#E4761B" stroke="#E4761B" stroke-width="0.780519"/>
<path d="M42.4853 12.9659L33.4688 17.5367L50.7651 4.96094L42.4853 12.9659Z" fill="#763D16" stroke="#763D16" stroke-width="0.780519"/>
<path d="M20.4912 44.7954L24.5749 49.0539L19.0176 43.9961L20.4912 44.7954Z" fill="#C0AD9E" stroke="#C0AD9E" stroke-width="0.780519"/>
<path d="M39.5625 44.995L41.4982 37.6393L45.3321 37.0898L39.5625 44.995Z" fill="#CD6116" stroke="#CD6116" stroke-width="0.780519"/>
<path d="M3.93359 24.2977L11.002 16.8672L4.84524 23.4111L3.93359 24.2977Z" fill="#E2761B" stroke="#E2761B" stroke-width="0.780519"/>
<path d="M45.3305 37.0907L41.4966 37.6402L44.1067 28.5612L45.3305 37.0907ZM33.4666 17.534L26.5856 17.3092L20.3789 7.98047L33.4666 17.534Z" fill="#F6851B" stroke="#F6851B" stroke-width="0.780519"/>
<path d="M44.1075 28.5625L41.4975 37.6415L41.2852 33.2082L44.1075 28.5625Z" fill="#E4751F" stroke="#E4751F" stroke-width="0.780519"/>
<path d="M36.0781 29.4492L44.1081 28.5625L41.2858 33.2082L36.0781 29.4492Z" fill="#CD6116" stroke="#CD6116" stroke-width="0.780519"/>
<path d="M26.5859 17.3086L33.467 17.5334L36.0771 29.4472L26.5859 17.3086Z" fill="#F6851B" stroke="#F6851B" stroke-width="0.780519"/>
<path d="M26.5878 17.3128L8.01766 0.128906L20.3811 7.98405L26.5878 17.3128ZM20.3686 47.4096L4.2337 52.405L1.01172 40.104L20.3686 47.4096Z" fill="#E4761B" stroke="#E4761B" stroke-width="0.780519"/>
<path d="M6.33008 27.3729L12.4244 22.5898L17.5321 23.7762L6.33008 27.3729Z" fill="#763D16" stroke="#763D16" stroke-width="0.780519"/>
<path d="M17.5315 23.7805L12.4238 22.5941L15.1588 11.3047L17.5315 23.7805Z" fill="#763D16" stroke="#763D16" stroke-width="0.780519"/>
<path d="M4.8457 23.4141L12.4261 22.5898L6.33181 27.3729L4.8457 23.4141Z" fill="#763D16" stroke="#763D16" stroke-width="0.780519"/>
<path d="M41.2858 33.2043L38.1387 31.6183L36.0781 29.4453L41.2858 33.2043Z" fill="#CD6116" stroke="#CD6116" stroke-width="0.780519"/>
<path d="M4.84559 23.4169L4.30859 20.582L12.426 22.5927L4.84559 23.4169Z" fill="#763D16" stroke="#763D16" stroke-width="0.780519"/>
<path d="M37.4902 35.1927L38.1396 31.6211L41.2867 33.2071L37.4902 35.1927Z" fill="#233447" stroke="#233447" stroke-width="0.780519"/>
<path d="M41.499 37.6365L37.4902 35.1888L41.2867 33.2031L41.499 37.6365Z" fill="#F6851B" stroke="#F6851B" stroke-width="0.780519"/>
<path d="M12.4258 22.5941L4.30836 20.5835L3.64648 18.1982L12.4258 22.5941ZM15.1607 11.3047L12.4258 22.5941L3.64648 18.1982L15.1607 11.3047ZM15.1607 11.3047L26.5875 17.3116L17.5335 23.7805L15.1607 11.3047Z" fill="#763D16" stroke="#763D16" stroke-width="0.780519"/>
<path d="M17.5332 23.7775L26.5872 17.3086L30.621 29.6345L17.5332 23.7775ZM30.621 29.6345L18.1077 29.3723L17.5332 23.7775L30.621 29.6345Z" fill="#E4761B" stroke="#E4761B" stroke-width="0.780519"/>
<path d="M6.33008 27.3742L17.5321 23.7775L18.1066 29.3723L6.33008 27.3742ZM36.0772 29.4472L30.6198 29.6345L26.5861 17.3086L36.0772 29.4472Z" fill="#F6851B" stroke="#F6851B" stroke-width="0.780519"/>
<path d="M38.1387 31.6183L37.4893 35.1899L36.0781 29.4453L38.1387 31.6183Z" fill="#CD6116" stroke="#CD6116" stroke-width="0.780519"/>
<path d="M8.01758 0.128906L26.5877 17.3128L15.1609 11.3059L8.01758 0.128906Z" fill="#763D16" stroke="#763D16" stroke-width="0.780519"/>
<path d="M1.01172 40.0986L16.6721 39.4492L20.3686 47.4043L1.01172 40.0986Z" fill="#E4761B" stroke="#E4761B" stroke-width="0.780519"/>
<path d="M20.3684 47.4078L16.6719 39.4528L24.3647 39.0781L20.3684 47.4078Z" fill="#CD6116" stroke="#CD6116" stroke-width="0.780519"/>
<path d="M37.4901 35.1927L41.4988 37.6404L43.7092 42.848L37.4901 35.1927ZM18.1082 29.3731L1.01172 40.1006L6.33174 27.375L18.1082 29.3731ZM16.6721 39.4512L1.01172 40.1006L18.1082 29.3731L16.6721 39.4512ZM36.0789 29.4481L37.1029 33.1696L32.1576 33.4568L36.0789 29.4481ZM32.1576 33.4568L30.6215 29.6354L36.0789 29.4481L32.1576 33.4568Z" fill="#F6851B" stroke="#F6851B" stroke-width="0.780519"/>
<path d="M24.5777 49.0586L20.3691 47.4102L35.0054 49.8703L24.5777 49.0586Z" fill="#C0AD9E" stroke="#C0AD9E" stroke-width="0.780519"/>
<path d="M6.33135 27.3768L3.93359 24.3046L4.84524 23.418L6.33135 27.3768Z" fill="#763D16" stroke="#763D16" stroke-width="0.780519"/>
<path d="M36.6664 48.0471L35.0054 49.8703L20.3691 47.4102L36.6664 48.0471Z" fill="#D7C1B3" stroke="#D7C1B3" stroke-width="0.780519"/>
<path d="M37.4532 43.5739L20.3691 47.4078L24.3654 39.0781L37.4532 43.5739Z" fill="#E4761B" stroke="#E4761B" stroke-width="0.780519"/>
<path d="M20.3691 47.4003L37.4532 43.5664L36.6664 48.0372L20.3691 47.4003Z" fill="#D7C1B3" stroke="#D7C1B3" stroke-width="0.780519"/>
<path d="M3.64596 18.1934L3.08398 8.58984L15.1602 11.2998L3.64596 18.1934ZM4.84484 23.4135L3.18389 21.7275L4.30784 20.5786L4.84484 23.4135Z" fill="#763D16" stroke="#763D16" stroke-width="0.780519"/>
<path d="M27.8242 32.1094L30.6216 29.6367L30.222 35.6811L27.8242 32.1094Z" fill="#CD6116" stroke="#CD6116" stroke-width="0.780519"/>
<path d="M30.6205 29.6367L27.8231 32.1094L23.752 34.2199L30.6205 29.6367Z" fill="#CD6116" stroke="#CD6116" stroke-width="0.780519"/>
<path d="M43.7094 42.8506L42.9476 42.2887L37.4902 35.1953L43.7094 42.8506Z" fill="#F6851B" stroke="#F6851B" stroke-width="0.780519"/>
<path d="M23.7502 34.2166L18.1055 29.3711L30.6188 29.6333L23.7502 34.2166Z" fill="#CD6116" stroke="#CD6116" stroke-width="0.780519"/>
<path d="M30.2188 35.6811L30.6184 29.6367L32.1544 33.4581L30.2188 35.6811Z" fill="#E4751F" stroke="#E4751F" stroke-width="0.780519"/>
<path d="M2.63672 19.1483L3.64827 18.1992L4.31015 20.5845L2.63672 19.1483Z" fill="#763D16" stroke="#763D16" stroke-width="0.780519"/>
<path d="M30.2209 35.681L23.752 34.2199L27.8231 32.1094L30.2209 35.681Z" fill="#233447" stroke="#233447" stroke-width="0.780519"/>
<path d="M15.1602 11.3059L3.08398 8.59598L8.01687 0.128906L15.1602 11.3059Z" fill="#763D16" stroke="#763D16" stroke-width="0.780519"/>
<path d="M35.0039 49.8664L35.6908 51.7397L24.5762 49.0547L35.0039 49.8664Z" fill="#C0AD9E" stroke="#C0AD9E" stroke-width="0.780519"/>
<path d="M24.3639 39.0806L23.752 34.2227L30.2209 35.6838L24.3639 39.0806Z" fill="#F6851B" stroke="#F6851B" stroke-width="0.780519"/>
<path d="M18.1055 29.3711L23.7502 34.2166L24.3621 39.0745L18.1055 29.3711Z" fill="#E4751F" stroke="#E4751F" stroke-width="0.780519"/>
<path d="M32.1574 33.4587L37.1027 33.1714L42.9473 42.2879L32.1574 33.4587ZM18.108 29.375L24.3647 39.0784L16.6719 39.4531L18.108 29.375Z" fill="#F6851B" stroke="#F6851B" stroke-width="0.780519"/>
<path d="M32.1544 33.457L38.2987 42.8108L30.2188 35.6799L32.1544 33.457Z" fill="#E4751F" stroke="#E4751F" stroke-width="0.780519"/>
<path d="M30.2188 35.6758L38.2987 42.8066L37.4495 43.5684L30.2188 35.6758Z" fill="#F6851B" stroke="#F6851B" stroke-width="0.780519"/>
<path d="M37.453 43.5726L24.3652 39.0768L30.2223 35.68L37.453 43.5726ZM42.9478 42.2863L38.3022 42.8108L32.1579 33.457L42.9478 42.2863Z" fill="#F6851B" stroke="#F6851B" stroke-width="0.780519"/>
<path d="M44.1703 46.6836L42.1722 50.6923L35.6908 51.7413L44.1703 46.6836ZM35.6908 51.7413L35.0039 49.8681L36.6648 48.0448L35.6908 51.7413Z" fill="#C0AD9E" stroke="#C0AD9E" stroke-width="0.780519"/>
<path d="M36.6674 48.0448L37.8913 47.5578L35.6934 51.7413L36.6674 48.0448ZM35.6934 51.7413L37.8913 47.5578L44.1729 46.6836L35.6934 51.7413Z" fill="#C0AD9E" stroke="#C0AD9E" stroke-width="0.780519"/>
<path d="M42.9451 42.2852L44.4812 43.2218L39.8105 43.7838L42.9451 42.2852Z" fill="#161616" stroke="#161616" stroke-width="0.780519"/>
<path d="M39.8119 43.7837L38.3008 42.8097L42.9464 42.2852L39.8119 43.7837ZM39.2749 44.5206L44.957 43.8337L44.1703 46.681L39.2749 44.5206Z" fill="#161616" stroke="#161616" stroke-width="0.780519"/>
<path d="M44.1715 46.6839L37.8899 47.5581L39.2761 44.5234L44.1715 46.6839ZM37.8899 47.5581L36.666 48.0451L37.4528 43.5743L37.8899 47.5581ZM37.4528 43.5743L38.302 42.8125L39.8131 43.7866L37.4528 43.5743ZM44.4837 43.2246L44.9582 43.8365L39.2761 44.5234L44.4837 43.2246Z" fill="#161616" stroke="#161616" stroke-width="0.780519"/>
<path d="M39.2745 44.5253L39.8115 43.7885L44.4821 43.2266L39.2745 44.5253ZM37.4512 43.5762L39.2745 44.5253L37.8883 47.56L37.4512 43.5762Z" fill="#161616" stroke="#161616" stroke-width="0.780519"/>
<path d="M39.8115 43.7865L39.2745 44.5233L37.4512 43.5742L39.8115 43.7865Z" fill="#161616" stroke="#161616" stroke-width="0.780519"/>
</g>
<defs>
<clipPath id="clip0_5020_119261">
<rect width="50.4608" height="52.4759" fill="white" transform="translate(0.769531)"/>
</clipPath>
</defs>
</svg>
